<svg width="50" height="50" viewBox="0 0 50 50" fill="none" xmlns="http://www.w3.org/2000/svg">
    <path d="M0 25C0 11.1929 11.1929 0 25 0C38.8071 0 50 11.1929 50 25C50 38.8071 38.8071 50 25 50C11.1929 50 0 38.8071 0 25Z" fill="#FAFAFA"/>
    <path d="M0.5 25C0.5 11.469 11.469 0.5 25 0.5C38.531 0.5 49.5 11.469 49.5 25C49.5 38.531 38.531 49.5 25 49.5C11.469 49.5 0.5 38.531 0.5 25Z" stroke="#061624" stroke-opacity="0.1"/>
    <path d="M20.2874 25.5868H22.2404V33.7097C22.2404 33.8701 22.369 34 22.5277 34H25.8391C25.9978 34 26.1264 33.8701 26.1264 33.7097V25.6251H28.3716C28.5176 25.6251 28.6404 25.5144 28.6571 25.3679L28.9981 22.3775C29.0074 22.2952 28.9816 22.2128 28.9271 22.1511C28.8726 22.0893 28.7946 22.0539 28.7126 22.0539H26.1266V20.1794C26.1266 19.6143 26.4277 19.3277 27.0218 19.3277C27.1065 19.3277 28.7126 19.3277 28.7126 19.3277C28.8714 19.3277 29 19.1977 29 19.0374V16.2925C29 16.1321 28.8714 16.0021 28.7126 16.0021H26.3824C26.366 16.0013 26.3295 16 26.2757 16C25.8713 16 24.466 16.0802 23.3558 17.112C22.1257 18.2554 22.2967 19.6244 22.3376 19.8618V22.0539H20.2874C20.1286 22.0539 20 22.1838 20 22.3442V25.2964C20 25.4568 20.1286 25.5868 20.2874 25.5868Z" fill="#385C8E"/>
</svg>
