<svg width="50" height="50" viewBox="0 0 50 50" fill="none" xmlns="http://www.w3.org/2000/svg">
    <path d="M0 25C0 11.1929 11.1929 0 25 0C38.8071 0 50 11.1929 50 25C50 38.8071 38.8071 50 25 50C11.1929 50 0 38.8071 0 25Z" fill="#FAFAFA"/>
    <path d="M0.5 25C0.5 11.469 11.469 0.5 25 0.5C38.531 0.5 49.5 11.469 49.5 25C49.5 38.531 38.531 49.5 25 49.5C11.469 49.5 0.5 38.531 0.5 25Z" stroke="#061624" stroke-opacity="0.1"/>
    <path d="M32.855 23.3338C32.935 23.3338 32.9999 23.3987 32.9999 23.4787V24.9997C32.9999 25.5691 32.947 26.1257 32.8456 26.6657C32.061 30.86 28.3658 34.0298 23.9365 33.9993C18.9665 33.965 14.989 29.9494 15 24.9795C15.011 20.0185 19.0363 16 23.9999 16C26.4318 16 28.6382 16.9647 30.2582 18.5318C30.3167 18.5884 30.3182 18.6816 30.2607 18.7391L28.1087 20.891C28.0533 20.9464 27.9638 20.9479 27.907 20.8938C26.8903 19.926 25.5146 19.3319 23.9999 19.3319C20.8721 19.3319 18.3533 21.8327 18.3321 24.9604C18.3107 28.1087 20.8566 30.6676 23.9999 30.6676C26.5503 30.6676 28.7074 28.9828 29.4187 26.6657H24.1448C24.0648 26.6657 23.9999 26.6008 23.9999 26.5208V23.4787C23.9999 23.3986 24.0648 23.3338 24.1448 23.3338H32.855V23.3338Z" fill="#2196F3"/>
    <path d="M32.856 23.3344H31.7695C31.8495 23.3344 31.9144 23.3992 31.9144 23.4792V25.0003C31.9144 25.5696 31.8615 26.1263 31.7601 26.6662C31.0115 30.6677 27.6139 33.7366 23.457 33.9838C23.6161 33.9932 23.7762 33.9987 23.9374 33.9998C28.3667 34.0304 32.062 30.8606 32.8466 26.6662C32.948 26.1263 33.0009 25.5696 33.0009 25.0003V23.4792C33.0009 23.3992 32.936 23.3344 32.856 23.3344Z" fill="#1E88E5"/>
    <path d="M18.852 22.6261L16.1187 20.6513C17.6521 17.8778 20.607 16 24.0002 16C26.432 16 28.6385 16.9647 30.2585 18.5318C30.317 18.5884 30.3185 18.6816 30.2609 18.7391L28.109 20.891C28.0537 20.9463 27.9642 20.948 27.9075 20.8941C26.8908 19.9261 25.515 19.3319 24.0002 19.3319C21.7175 19.3319 19.7498 20.6813 18.852 22.6261Z" fill="#F44336"/>
    <path d="M18.0625 22.0559L18.8516 22.626C19.671 20.8509 21.382 19.5724 23.4101 19.3627C23.4254 19.3611 23.44 19.3591 23.4556 19.3576C23.2771 19.3406 23.0962 19.3318 22.9133 19.3318C20.8511 19.3318 19.054 20.4189 18.0625 22.0559Z" fill="#E53935"/>
    <path d="M29.1716 18.5318C29.2301 18.5884 29.2316 18.6816 29.1741 18.7392L27.4274 20.4858C27.5948 20.613 27.7549 20.7492 27.907 20.8939C27.9637 20.9479 28.0532 20.9464 28.1086 20.891L30.2606 18.7392C30.3181 18.6816 30.3166 18.5884 30.2581 18.5318C28.6382 16.9647 26.4317 16 23.9999 16C23.8174 16 23.6363 16.0061 23.4565 16.0168C25.6728 16.1488 27.6732 17.0823 29.1716 18.5318Z" fill="#E53935"/>
    <path d="M30.6027 31.1159C28.9591 32.8894 26.6094 33.9995 24.0006 33.9995C20.4771 33.9995 17.4265 31.9746 15.9492 29.0248L18.7397 27.1125C19.5771 29.1961 21.6172 30.6676 24.0006 30.6676C25.4964 30.6676 26.8567 30.0881 27.8694 29.1414L30.6027 31.1159Z" fill="#4CAF50"/>
    <path d="M18.7389 27.1125L17.916 27.6764C18.8717 29.4568 20.7511 30.6676 22.9132 30.6676C23.0961 30.6676 23.2768 30.6586 23.4552 30.6417C21.309 30.4371 19.5117 29.0355 18.7389 27.1125Z" fill="#43A047"/>
    <path d="M24.0009 33.9998C26.6096 33.9998 28.9594 32.8897 30.6029 31.1162L29.9334 30.6326C28.3902 32.5531 26.0752 33.8272 23.459 33.9834C23.6383 33.9941 23.8189 33.9998 24.0009 33.9998Z" fill="#43A047"/>
    <path d="M18.332 25.0005C18.332 25.7473 18.4765 26.4604 18.739 27.1134L15.9485 29.0256C15.3415 27.8145 15 26.4473 15 25.0005C15 23.4233 15.4056 21.9409 16.1184 20.652L18.8517 22.6269C18.5181 23.3486 18.332 24.153 18.332 25.0005Z" fill="#FFC107"/>
    <path d="M17.9169 27.6769L18.7398 27.113C18.4772 26.46 18.3327 25.7469 18.3327 25.0001C18.3327 24.1527 18.5188 23.3483 18.8524 22.6265L18.0633 22.0564C17.5509 22.9024 17.2535 23.8952 17.2462 24.9608C17.2395 25.9436 17.4831 26.8689 17.9169 27.6769Z" fill="#FFB300"/>
</svg>
