<svg width="102" height="18" viewBox="0 0 102 18" fill="none" xmlns="http://www.w3.org/2000/svg">
    <path d="M10.6537 0.0527344V9.31758C10.6537 9.74112 10.336 10.0588 9.91249 10.0588H8.80071C8.74776 10.0588 8.69482 10.1117 8.69482 10.1647V17.9471C8.95953 17.9471 9.22424 18.0001 9.5419 18.0001C14.5184 18.0001 18.542 13.9765 18.542 8.99993C18.542 4.39398 15.1008 0.582154 10.6537 0.0527344ZM10.4419 13.9235C9.80661 13.9235 9.33013 13.3941 9.33013 12.8118C9.33013 12.1765 9.85955 11.7 10.4419 11.7C11.0772 11.7 11.5537 12.2294 11.5537 12.8118C11.6066 13.3941 11.0772 13.9235 10.4419 13.9235ZM13.089 13.9235C12.4537 13.9235 11.9772 13.3941 11.9772 12.8118C11.9772 12.1765 12.5066 11.7 13.089 11.7C13.7243 11.7 14.2008 12.2294 14.2008 12.8118C14.2008 13.3941 13.7243 13.9235 13.089 13.9235ZM15.7361 13.9235C15.1008 13.9235 14.6243 13.3941 14.6243 12.8118C14.6243 12.1765 15.1537 11.7 15.7361 11.7C16.3714 11.7 16.8479 12.2294 16.8479 12.8118C16.8479 13.3941 16.3714 13.9235 15.7361 13.9235Z" fill="#8798AD"/>
    <path d="M9.54165 0C4.5651 0 0.541504 4.02359 0.541504 9.00014C0.541504 13.3414 3.5592 16.9414 7.63574 17.7885V9.68839C7.63574 9.31779 7.95339 9.00014 8.32398 8.9472H8.69458H9.43576C9.48871 8.9472 9.54165 8.89426 9.54165 8.84132V0ZM7.79456 7.41188C7.15926 7.41188 6.68278 6.88246 6.68278 6.3001C6.68278 5.66479 7.2122 5.18832 7.79456 5.18832C8.42987 5.18832 8.90634 5.71774 8.90634 6.3001C8.90634 6.88246 8.42987 7.41188 7.79456 7.41188Z" fill="#8798AD"/>
    <path d="M99.6503 4.92358V8.31188H95.0973V4.92358H92.8208V13.9237H95.0973V10.2707H99.6503V13.9237H101.874V4.92358H99.6503Z" fill="#8798AD"/>
    <path d="M62.167 5.92995C61.7964 5.13582 61.0553 4.71228 60.3141 4.71228C59.5729 4.71228 58.8317 5.13582 58.4611 5.92995L54.8081 13.9242H57.1905L57.9846 12.0183H62.6435L63.4377 13.9242H65.82L62.167 5.92995ZM58.7258 10.2182L60.1023 6.93584C60.1552 6.82996 60.2082 6.82996 60.2611 6.82996C60.3141 6.82996 60.42 6.82996 60.42 6.93584L61.7964 10.2182H58.7258Z" fill="#8798AD"/>
    <path d="M35.3773 3.28223C34.3184 3.28223 33.6302 3.86459 33.1537 4.97637L30.2419 11.7529L27.3301 4.97637C26.8536 3.86459 26.1654 3.28223 25.1065 3.28223C24.1006 3.28223 23.0947 3.97047 23.0947 5.50579V13.8706H25.3183V5.7705L28.283 12.4941C28.6536 13.4471 29.3419 14.0295 30.2419 14.0295C31.1949 14.0295 31.8302 13.4471 32.2008 12.4941L35.1655 5.7705V13.9236H37.3891V5.55873C37.3891 4.02341 36.3832 3.28223 35.3773 3.28223Z" fill="#8798AD"/>
    <path d="M41.3596 12.018C41.2538 12.018 41.1479 11.9121 41.1479 11.8062V10.218H46.7597V8.36502H41.1479V6.98853C41.1479 6.88264 41.2538 6.77676 41.3596 6.77676H46.9186V4.87085H40.2479C39.4537 4.87085 38.9243 5.50615 38.9243 6.1944V12.4945C38.9243 13.1827 39.5067 13.818 40.2479 13.818H46.9186V11.9121H41.3596V12.018Z" fill="#8798AD"/>
    <path d="M50.6777 13.9237V7.04127C50.6777 6.93538 50.7835 6.8295 50.8894 6.8295H56.4483V4.92358H49.7777C48.9835 4.92358 48.4541 5.55889 48.4541 6.24713V13.8708H50.6777V13.9237Z" fill="#8798AD"/>
    <path d="M91.3383 9.4237C91.3383 6.30012 89.9619 4.81775 86.5736 4.81775H85.7794C82.3911 4.81775 81.0146 6.30012 81.0146 9.4237C81.0146 12.4943 82.3911 14.0297 85.7794 14.0297H86.5206C89.9618 13.9767 91.3383 12.4943 91.3383 9.4237ZM86.5206 12.1237H85.7794C83.9265 12.1237 83.1853 11.2767 83.1853 9.4237C83.1853 7.62368 83.8206 6.72366 85.7794 6.72366H86.5206C88.4265 6.72366 89.1148 7.62368 89.1148 9.4237C89.1148 11.2767 88.4265 12.1237 86.5206 12.1237Z" fill="#8798AD"/>
    <path d="M74.7672 3.49451H70.32C66.9847 3.49451 65.6611 5.18865 65.6611 8.10046C65.6611 8.57694 65.7141 9.00048 65.767 9.37107C66.1376 11.4358 67.3553 12.7064 70.4789 12.7064H71.4848V13.8711H73.7083V12.7064H74.6613C77.7849 12.7064 79.0025 11.4358 79.3731 9.37107C79.4261 9.00048 79.479 8.57694 79.479 8.10046C79.4261 5.18865 78.0496 3.49451 74.7672 3.49451ZM71.3789 10.8534H70.373C68.8376 10.8534 68.3082 10.2711 67.9906 9.37107C67.8847 9.05342 67.8847 8.57694 67.8847 8.10046C67.8847 6.19455 68.7847 5.40042 70.0553 5.40042H71.4318V10.8534H71.3789ZM77.0966 9.42401C76.779 10.324 76.1966 10.9064 74.7142 10.9064H73.7083V5.40042H75.0848C76.3554 5.40042 77.2554 6.19455 77.2554 8.10046C77.2025 8.62988 77.2025 9.05342 77.0966 9.42401Z" fill="#8798AD"/>
</svg>
