<svg width="65" height="18" viewBox="0 0 65 18" fill="none" xmlns="http://www.w3.org/2000/svg">
<path d="M19.26 0C18.9931 0.558119 18.7651 1.04994 18.5236 1.5355C17.4128 3.76529 16.3118 5.99955 15.1776 8.21724C14.8985 8.76193 14.89 9.21792 15.1718 9.77066C16.4542 12.2835 17.699 14.8152 18.955 17.3406C19.0508 17.5333 19.1328 17.7339 19.2533 18H0V0H19.26ZM16.0815 1.96013H1.95655V16.0134H16.0555C15.9194 15.716 15.8181 15.4773 15.7026 15.2457C14.7933 13.4078 13.8974 11.5628 12.9613 9.73886C12.6903 9.2103 12.6925 8.76506 12.9657 8.24636C13.5512 7.1346 14.0945 6.00045 14.6517 4.87346C15.1176 3.93012 15.578 2.98589 16.0815 1.96013Z" fill="#8798AD"/>
<path d="M9.24638 13.7461L6.98614 10.6456H6.54537V13.7461H4.05176V3.99023H7.95142C9.02645 3.99023 9.89274 4.25182 10.5494 4.77545C11.2065 5.29953 11.5483 6.10804 11.5761 7.20098C11.5761 8.92864 10.9373 9.99337 9.66027 10.3978L12.3201 13.7466H9.24728L9.24638 13.7461ZM6.54537 8.52327H7.99218C8.47863 8.52327 8.82309 8.33783 9.0251 7.9656C9.22667 7.59382 9.22667 7.22114 9.0251 6.84936C8.82354 6.47758 8.47863 6.29169 7.99173 6.29169H6.54493V8.52416L6.54537 8.52327Z" fill="#8798AD"/>
<path d="M27.231 12.6184L25.5826 10.3563H25.261V12.6184H23.4424V5.5035H26.2867C27.0706 5.5035 27.7022 5.69431 28.1815 6.07595C28.6607 6.45803 28.9098 7.04795 28.9295 7.84526C28.9295 9.10484 28.4637 9.88199 27.532 10.1767L29.4724 12.6188H27.231V12.6184ZM25.2601 8.80921H26.3158C26.6711 8.80921 26.9223 8.67303 27.0693 8.40249C27.2171 8.13104 27.2171 7.8596 27.0693 7.58815C26.9214 7.31671 26.6706 7.18143 26.3158 7.18143H25.2605V8.80921H25.2601ZM31.5521 5.50305V10.2368C31.5521 10.4518 31.6229 10.6332 31.764 10.7846C31.9042 10.9351 32.0731 11.0265 32.2715 11.0609C32.4686 11.0945 32.6688 11.0945 32.8695 11.0609C33.0711 11.0269 33.2413 10.9355 33.3824 10.7846C33.5226 10.6332 33.5938 10.4513 33.5938 10.2368V5.50305H35.4124V10.2368C35.4124 10.5987 35.3474 10.9288 35.2166 11.2267C35.0867 11.525 34.9107 11.7714 34.689 11.9658C34.4681 12.1602 34.2142 12.3263 33.9297 12.463C33.6448 12.6009 33.3474 12.6824 33.0352 12.7093C32.7239 12.7362 32.4104 12.7362 32.0955 12.7093C31.7801 12.6824 31.4809 12.6 31.196 12.463C30.9111 12.3259 30.6599 12.1602 30.4426 11.9658C30.2245 11.7723 30.052 11.525 29.9248 11.2267C29.7971 10.9292 29.734 10.5987 29.734 10.2368V5.50305H31.5526H31.5521ZM36.026 11.4327L37.1615 10.3667C37.2959 10.5346 37.4643 10.6757 37.669 10.789C37.8737 10.9024 38.0767 10.9772 38.2773 11.0099C38.4789 11.0435 38.6697 11.0515 38.8498 11.0345C39.0307 11.0179 39.1812 10.9628 39.3022 10.8688C39.4222 10.7756 39.4858 10.6538 39.493 10.5069C39.4997 10.3187 39.3819 10.1655 39.1409 10.0446C38.9004 9.92365 38.6124 9.83989 38.2764 9.79375C37.6538 9.69252 37.1324 9.45019 36.7141 9.06452C36.2957 8.67931 36.0861 8.16867 36.0861 7.53171C36.0861 6.86878 36.3387 6.34784 36.8444 5.96844C37.3506 5.58995 37.9553 5.40137 38.6585 5.40137C39.6574 5.40137 40.4681 5.77987 41.0917 6.53642L39.9154 7.44123C39.6749 7.18681 39.3931 7.01436 39.0711 6.92343C38.7494 6.83295 38.4695 6.83967 38.2312 6.94358C37.9938 7.0475 37.8711 7.23384 37.8639 7.5017C37.8845 7.80898 38.1998 8.03026 38.809 8.16464C39.0975 8.21749 39.3488 8.27483 39.5624 8.33485C39.7774 8.39577 40.0014 8.48714 40.2357 8.61167C40.4699 8.73575 40.6594 8.87953 40.8045 9.04347C40.9479 9.20786 41.0643 9.42242 41.1508 9.68714C41.2377 9.95142 41.274 10.2515 41.2614 10.5861C41.2413 11.022 41.0854 11.4072 40.7938 11.7418C40.5026 12.0777 40.1506 12.3241 39.7389 12.4809C39.3268 12.6385 38.8959 12.7183 38.4475 12.7183C38.0117 12.7183 37.5786 12.6063 37.1503 12.3855C36.7221 12.1642 36.3485 11.8466 36.0269 11.4314L36.026 11.4327ZM47.0917 7.67326C47.0845 7.86811 47.02 8.07953 46.8955 8.30708C46.7714 8.53463 46.5927 8.70887 46.358 8.82981C46.7933 9.05064 47.0845 9.34582 47.2314 9.71447C47.3792 10.0831 47.4227 10.4383 47.3622 10.7796C47.1678 12.0061 46.3239 12.6188 44.8296 12.6188H41.9248V5.5035H44.7795C45.476 5.5035 46.0408 5.69969 46.4726 6.09118C46.9053 6.48267 47.1118 7.01033 47.0917 7.67416V7.67326ZM43.7344 8.28692H44.7799C45.0549 8.28692 45.2511 8.18076 45.3689 7.97024C45.4854 7.75881 45.4872 7.54829 45.3734 7.33687C45.2605 7.12499 45.0625 7.02018 44.7808 7.02018H43.7353V8.28692H43.7344ZM43.7344 11.0408H44.7799C45.1217 11.0408 45.3613 10.9189 45.4993 10.6735C45.6363 10.4298 45.6354 10.1861 45.4948 9.94515C45.3528 9.70327 45.115 9.58322 44.7803 9.58322H43.7353V11.0408H43.7344ZM51.4437 5.50305L53.9866 12.6188H52.0569L51.5942 11.1917H49.695L49.2525 12.6193H47.3219L49.8052 5.50394H51.4437V5.50305ZM50.0968 9.59263H51.1629L50.6702 7.5129H50.6195L50.0973 9.59308L50.0968 9.59263ZM53.8961 11.4327L55.0316 10.3667C55.166 10.5346 55.3344 10.6757 55.5391 10.789C55.7443 10.9024 55.9468 10.9772 56.1483 11.0099C56.349 11.0435 56.5403 11.0515 56.7203 11.0345C56.9013 11.0179 57.0518 10.9628 57.1727 10.8688C57.2928 10.7756 57.3564 10.6538 57.3636 10.5069C57.3703 10.3187 57.2525 10.1655 57.0115 10.0446C56.7709 9.92365 56.4829 9.83989 56.147 9.79375C55.5244 9.69252 55.003 9.45019 54.5846 9.06452C54.1658 8.67931 53.9562 8.16867 53.9562 7.53171C53.9562 6.86878 54.2088 6.34784 54.7145 5.96844C55.2207 5.58995 55.8254 5.40137 56.5286 5.40137C57.5275 5.40137 58.3382 5.77987 58.9618 6.53642L57.7855 7.44123C57.5445 7.18681 57.2628 7.01436 56.9407 6.92343C56.6191 6.83295 56.3391 6.83967 56.1008 6.94358C55.8634 7.0475 55.7407 7.23384 55.7335 7.5017C55.7542 7.80898 56.0695 8.03026 56.6787 8.16464C56.9671 8.21749 57.2184 8.27483 57.4321 8.33485C57.6471 8.39577 57.8711 8.48714 58.1053 8.61167C58.3396 8.73575 58.5291 8.87953 58.6742 9.04347C58.8175 9.20786 58.934 9.42242 59.0204 9.68714C59.1073 9.95142 59.1436 10.2515 59.1311 10.5861C59.1109 11.022 58.955 11.4072 58.6634 11.7418C58.3723 12.0777 58.0198 12.3241 57.6081 12.4809C57.196 12.6385 56.7651 12.7183 56.3167 12.7183C55.8809 12.7183 55.4478 12.6063 55.0195 12.3855C54.5918 12.1642 54.2186 11.8466 53.8966 11.4314L53.8961 11.4327ZM61.6157 7.19084V8.29722H64.5004V9.85467H61.6157V10.9198H64.7521V12.6188H59.7963V5.5035H64.7517V7.19218L61.6148 7.19129L61.6157 7.19084Z" fill="#8798AD"/>
</svg>
