<svg width="130" height="18" viewBox="0 0 130 18" fill="none" xmlns="http://www.w3.org/2000/svg">
    <path d="M82.7709 13.0948C82.6363 13.2578 82.4482 13.4186 82.2043 13.5773C81.9607 13.736 81.6742 13.8799 81.3448 14.0069C81.0135 14.1338 80.6458 14.2397 80.2373 14.3222C79.829 14.4047 79.3929 14.4449 78.9268 14.4449C78.0373 14.4449 77.2313 14.3179 76.5085 14.0619C75.786 13.8058 75.1679 13.4397 74.6571 12.9657C74.1461 12.4917 73.7484 11.9098 73.464 11.2241C73.1796 10.5385 73.0386 9.76186 73.0386 8.89214C73.0386 8.08376 73.1775 7.3431 73.4577 6.66805C73.7376 5.99301 74.1332 5.41106 74.6506 4.92011C75.1679 4.42916 75.7902 4.04826 76.5171 3.77739C77.2462 3.50652 78.0587 3.37109 78.9589 3.37109C79.8162 3.37109 80.5495 3.47689 81.1588 3.68639C81.7683 3.8959 82.2342 4.11385 82.5528 4.33818V7.00664C82.3883 6.77175 82.183 6.54108 81.9414 6.31677C81.6977 6.09246 81.424 5.89355 81.1203 5.71791C80.8147 5.54437 80.4789 5.4026 80.1134 5.29678C79.7456 5.18887 79.3608 5.13596 78.9589 5.13596C78.3709 5.13596 77.8384 5.22908 77.3617 5.41106C76.887 5.59516 76.483 5.85122 76.1537 6.17711C75.8223 6.50511 75.57 6.90083 75.3946 7.36638C75.2194 7.83194 75.1317 8.34616 75.1317 8.90905C75.1317 9.42964 75.2108 9.91847 75.3711 10.3734C75.5316 10.8284 75.7688 11.2241 76.0831 11.5627C76.3975 11.8992 76.793 12.1679 77.2698 12.369C77.7445 12.5679 78.2918 12.6737 78.9118 12.6843C79.3864 12.6843 79.8226 12.6335 80.2203 12.5298C80.6179 12.4282 80.9793 12.2907 81.3043 12.115C81.6293 11.9415 81.9158 11.7362 82.1638 11.5014C82.4118 11.2664 82.6128 11.0104 82.7688 10.7353V13.0948H82.7709Z" fill="white"/>
    <path d="M87.019 12.5131H92.9094V14.2779H85.082V3.53845H87.019V12.5131Z" fill="white"/>
    <path d="M93.3882 8.89214C93.3882 8.08376 93.525 7.3431 93.7987 6.66805C94.0724 5.99301 94.4614 5.41106 94.9682 4.92011C95.475 4.42916 96.0843 4.04826 96.7963 3.77739C97.5083 3.50652 98.31 3.37109 99.1994 3.37109C100.067 3.37109 100.861 3.49805 101.579 3.75411C102.297 4.01017 102.909 4.37627 103.416 4.85028C103.922 5.32642 104.314 5.90624 104.594 6.59187C104.872 7.2775 105.013 8.05413 105.013 8.92387C105.013 9.73225 104.876 10.4729 104.602 11.1479C104.329 11.823 103.937 12.4049 103.433 12.8959C102.926 13.3868 102.315 13.7677 101.596 14.0386C100.878 14.3095 100.08 14.4449 99.2016 14.4449C98.3335 14.4449 97.5404 14.3201 96.822 14.0682C96.1035 13.8185 95.492 13.4546 94.9854 12.9784C94.4786 12.5023 94.0874 11.9203 93.8073 11.2305C93.5272 10.5406 93.3882 9.76186 93.3882 8.89214ZM95.4344 8.90695C95.4344 9.42752 95.5135 9.91847 95.6738 10.3798C95.8341 10.839 96.0736 11.2389 96.3944 11.5754C96.715 11.9119 97.1105 12.1806 97.5809 12.3817C98.0514 12.5806 98.5965 12.68 99.2165 12.68C99.7959 12.68 100.313 12.5869 100.773 12.4028C101.233 12.2187 101.626 11.9627 101.951 11.6368C102.276 11.3088 102.526 10.9131 102.704 10.4475C102.879 9.98195 102.967 9.46773 102.967 8.90483C102.967 8.38425 102.885 7.8933 102.727 7.43198C102.567 6.97279 102.327 6.57282 102.007 6.23635C101.686 5.89989 101.29 5.63115 100.82 5.43011C100.35 5.23118 99.8045 5.13172 99.1844 5.13172C98.6051 5.13172 98.0835 5.22484 97.6194 5.40682C97.1554 5.59094 96.76 5.8491 96.4328 6.18134C96.1079 6.51357 95.8598 6.9093 95.6888 7.37062C95.5199 7.83405 95.4344 8.34404 95.4344 8.90695Z" fill="white"/>
    <path d="M109.212 9.88903C109.212 10.38 109.282 10.8011 109.421 11.1545C109.56 11.5079 109.755 11.7978 110.003 12.0285C110.251 12.2591 110.546 12.4263 110.886 12.5342C111.226 12.6421 111.598 12.6951 112.002 12.6951C112.819 12.6951 113.452 12.4898 113.901 12.0814C114.35 11.6729 114.574 11.0021 114.574 10.071V3.53845H116.511V9.87421C116.511 10.6614 116.404 11.3449 116.193 11.9227C115.981 12.5004 115.675 12.9786 115.278 13.3574C114.88 13.7362 114.399 14.0155 113.837 14.1933C113.274 14.3732 112.635 14.462 111.923 14.462C111.128 14.462 110.439 14.3562 109.862 14.1467C109.282 13.9372 108.799 13.6388 108.412 13.2495C108.025 12.8601 107.739 12.3924 107.553 11.8465C107.367 11.3005 107.275 10.6826 107.275 9.99906V3.53845H109.212V9.88903Z" fill="white"/>
    <path d="M123.315 3.53845C125.329 3.53845 126.828 3.98285 127.809 4.87375C128.79 5.76253 129.282 7.03645 129.282 8.6934C129.282 9.6753 129.134 10.5196 128.839 11.2243C128.544 11.929 128.132 12.5088 127.599 12.9575C127.067 13.4082 126.432 13.7404 125.692 13.9542C124.952 14.17 124.144 14.2758 123.268 14.2758H119.58V3.53845H123.315ZM123.268 12.5131C124.621 12.5131 125.624 12.202 126.274 11.5777C126.924 10.9535 127.251 10.0541 127.251 8.87751C127.251 7.68188 126.932 6.78675 126.297 6.19212C125.662 5.59959 124.657 5.30333 123.283 5.30333H121.517V12.5131H123.268Z" fill="white"/>
    <path d="M29.4069 8.01358C28.1326 7.7152 27.0314 7.45914 27.0314 6.58094C27.0314 5.40224 28.496 5.27527 29.1268 5.27527C30.0013 5.27527 30.4973 5.39377 31.1473 5.6858C31.4637 5.45515 32.9026 4.40553 32.9026 4.40553C31.9534 3.80666 30.5273 3.33899 29.1418 3.33899C25.8363 3.33899 24.6604 5.07848 24.6604 6.70579C24.6604 9.05049 26.7194 9.5372 28.5367 9.9689C29.8131 10.2715 30.9142 10.5318 30.9142 11.4269C30.9142 11.8861 30.6383 12.6543 28.7869 12.6543C27.5596 12.6543 26.2126 12.2268 25.2591 11.537L24.4551 13.3547C25.428 14.106 27.117 14.5885 28.7719 14.5885C31.5128 14.5885 33.2852 13.2722 33.2852 11.2365C33.2874 8.91929 31.2243 8.43892 29.4069 8.01358Z" fill="#31B86F"/>
    <path d="M43.3258 8.79238L43.2126 8.75429L43.3173 8.69715C44.2216 8.21256 44.7199 7.37033 44.7199 6.32706C44.7199 4.57277 43.2168 3.52527 40.6981 3.52527H35.4941V14.4002H41.0061C43.7471 14.4002 45.2564 13.3548 45.2564 11.4566C45.2564 10.1658 44.553 9.19445 43.3258 8.79238ZM37.8653 5.3367H40.3902C41.9831 5.3367 42.3166 6.06254 42.3166 6.66564C42.3166 7.53961 41.6497 7.99459 40.3902 7.99459H37.8653V5.3367ZM37.8653 7.9967H40.3902H37.8653ZM40.8201 12.5909H37.8631V9.80602H40.8201C42.1691 9.80602 42.8533 10.2695 42.8533 11.1984C42.8555 12.1296 42.1906 12.5909 40.8201 12.5909Z" fill="#31B86F"/>
    <path d="M53.2891 5.33727L55.7715 3.52795H47.4629V14.4008H55.7715V12.5914H49.8341V9.80659H54.897V7.99727H49.8341V5.33727H53.2891Z" fill="#31B86F"/>
    <path d="M67.349 14.4008L64.9352 10.8689C66.3591 10.2531 67.1802 9.04266 67.1802 7.41956C67.1802 5.01984 65.3862 3.52795 62.502 3.52795H57.98V14.4029H60.3511V11.3217H62.5042C62.5726 11.3217 62.6388 11.3196 62.7052 11.3175L64.8112 14.4008H67.349ZM60.349 5.33727H62.4508C63.9688 5.33727 64.8068 6.07792 64.8068 7.4238C64.8068 8.76966 63.9708 9.51031 62.4508 9.51031H60.349V5.33727Z" fill="#31B86F"/>
    <path fill-rule="evenodd" clip-rule="evenodd" d="M17.0712 9C17.0712 12.8435 13.9232 15.9593 10.0399 15.9593C6.15662 15.9593 3.00858 12.8435 3.00858 9C3.00858 5.15647 6.15662 2.04068 10.0399 2.04068C11.5284 2.04068 12.9089 2.49844 14.0454 3.27951L15.7622 2.00513C14.1995 0.751247 12.2084 0 10.0399 0C5.01793 0 0.946777 4.02943 0.946777 9C0.946777 13.9706 5.01793 18 10.0399 18C15.0619 18 19.1331 13.9706 19.1331 9C19.1331 8.43841 19.0811 7.88884 18.9817 7.35572L17.0611 8.62296C17.0679 8.7478 17.0712 8.87351 17.0712 9Z" fill="#31B86F"/>
    <path fill-rule="evenodd" clip-rule="evenodd" d="M17.0712 9C17.0712 12.8435 13.9232 15.9593 10.0399 15.9593C6.15662 15.9593 3.00858 12.8435 3.00858 9C3.00858 5.15647 6.15662 2.04068 10.0399 2.04068C11.5284 2.04068 12.9089 2.49844 14.0454 3.27951L15.7622 2.00513C14.1995 0.751247 12.2084 0 10.0399 0C5.01793 0 0.946777 4.02943 0.946777 9C0.946777 13.9706 5.01793 18 10.0399 18C15.0619 18 19.1331 13.9706 19.1331 9C19.1331 8.43841 19.0811 7.88884 18.9817 7.35572L17.0611 8.62296C17.0679 8.7478 17.0712 8.87351 17.0712 9Z" fill="#31B86F"/>
    <path fill-rule="evenodd" clip-rule="evenodd" d="M17.0712 9C17.0712 12.8435 13.9232 15.9593 10.0399 15.9593C6.15662 15.9593 3.00858 12.8435 3.00858 9C3.00858 5.15647 6.15662 2.04068 10.0399 2.04068C11.5284 2.04068 12.9089 2.49844 14.0454 3.27951L15.7622 2.00513C14.1995 0.751247 12.2084 0 10.0399 0C5.01793 0 0.946777 4.02943 0.946777 9C0.946777 13.9706 5.01793 18 10.0399 18C15.0619 18 19.1331 13.9706 19.1331 9C19.1331 8.43841 19.0811 7.88884 18.9817 7.35572L17.0611 8.62296C17.0679 8.7478 17.0712 8.87351 17.0712 9Z" fill="#31B86F"/>
    <path d="M17.2507 3.60876C17.6761 4.15293 18.0385 4.74505 18.3292 5.37886L10.1327 11.3584L6.70752 9.2318V6.67777L10.1327 8.80231L17.2507 3.60876Z" fill="#31B86F"/>
</svg>