<svg width="28" height="28" viewBox="0 0 28 28" fill="none" xmlns="http://www.w3.org/2000/svg">
    <path d="M14 28C21.732 28 28 21.732 28 14C28 6.26801 21.732 0 14 0C6.26801 0 0 6.26801 0 14C0 21.732 6.26801 28 14 28Z" fill="#007AB9"/>
    <path d="M22.3651 15.1264V20.8983H19.0187V15.5133C19.0187 14.1611 18.5355 13.2377 17.3239 13.2377C16.3992 13.2377 15.85 13.8594 15.6074 14.4613C15.5193 14.6765 15.4966 14.9752 15.4966 15.2769V20.8981H12.1499C12.1499 20.8981 12.1949 11.7775 12.1499 10.8334H15.4968V12.2597C15.4901 12.2709 15.4806 12.2819 15.4746 12.2926H15.4968V12.2597C15.9415 11.5754 16.7347 10.5971 18.5128 10.5971C20.7144 10.5971 22.3651 12.0356 22.3651 15.1264ZM8.64906 5.98193C7.50431 5.98193 6.75537 6.73337 6.75537 7.72064C6.75537 8.68695 7.4826 9.4601 8.60513 9.4601H8.62685C9.79405 9.4601 10.5198 8.68695 10.5198 7.72064C10.4976 6.73337 9.79405 5.98193 8.64906 5.98193ZM6.95427 20.8983H10.2997V10.8334H6.95427V20.8983Z" fill="#F1F2F2"/>
</svg>
