<svg width="28" height="28" viewBox="0 0 28 28" fill="none" xmlns="http://www.w3.org/2000/svg">
    <mask id="mask0" mask-type="alpha" maskUnits="userSpaceOnUse" x="0" y="0" width="28" height="28">
        <circle cx="14" cy="14" r="14" fill="#C4C4C4"/>
    </mask>
    <g mask="url(#mask0)">
        <path d="M1.1198 1.22281C-1.13335 3.56316 -0.672205 6.04927 -0.672205 13.6019C-0.672205 19.8739 -1.76652 26.1615 3.96071 27.6417C5.74913 28.1016 21.5952 28.1016 23.3812 27.6393C25.7658 27.024 27.7059 25.0899 27.9711 21.7173C28.0082 21.2466 28.0082 5.96564 27.9699 5.48538C27.688 1.89302 25.4767 -0.177337 22.5629 -0.596665C21.8951 -0.693433 21.7612 -0.722105 18.3349 -0.728079C6.1816 -0.722105 3.51749 -1.26329 1.1198 1.22281Z" fill="url(#paint0_linear)"/>
    </g>
    <path d="M14.0058 5.18869C10.3909 5.18869 6.95824 4.86713 5.64709 8.2321C5.10551 9.6219 5.18416 11.4268 5.18416 14.0113C5.18416 16.2792 5.11148 18.4107 5.64709 19.7895C6.95525 23.1565 10.4158 22.8339 14.0038 22.8339C17.4653 22.8339 21.0344 23.1943 22.3615 19.7895C22.9041 18.3858 22.8244 16.6077 22.8244 14.0113C22.8244 10.5647 23.0146 8.33962 21.343 6.66908C19.6506 4.97664 17.3618 5.18869 14.0018 5.18869H14.0058ZM13.2153 6.77859C20.7556 6.76665 21.7154 5.92839 21.1857 17.5734C20.9976 21.692 17.8616 21.24 14.0068 21.24C6.97815 21.24 6.77605 21.0389 6.77605 14.0073C6.77605 6.89408 7.33356 6.78257 13.2153 6.7766V6.77859ZM18.7148 8.24305C18.1304 8.24305 17.6565 8.71694 17.6565 9.30133C17.6565 9.88572 18.1304 10.3596 18.7148 10.3596C19.2991 10.3596 19.773 9.88572 19.773 9.30133C19.773 8.71694 19.2991 8.24305 18.7148 8.24305ZM14.0058 9.48053C11.5039 9.48053 9.476 11.5095 9.476 14.0113C9.476 16.5131 11.5039 18.5411 14.0058 18.5411C16.5076 18.5411 18.5346 16.5131 18.5346 14.0113C18.5346 11.5095 16.5076 9.48053 14.0058 9.48053ZM14.0058 11.0704C17.8934 11.0704 17.8984 16.9522 14.0058 16.9522C10.1191 16.9522 10.1132 11.0704 14.0058 11.0704Z" fill="white"/>
    <defs>
        <linearGradient id="paint0_linear" x1="1.17477" y1="26.1126" x2="27.8224" y2="3.04943" gradientUnits="userSpaceOnUse">
            <stop stop-color="#FFDD55"/>
            <stop offset="0.5" stop-color="#FF543E"/>
            <stop offset="1" stop-color="#C837AB"/>
        </linearGradient>
    </defs>
</svg>
