<svg width="28" height="28" viewBox="0 0 28 28" fill="none" xmlns="http://www.w3.org/2000/svg">
    <path d="M13.976 0C6.2651 0 0 6.2651 0 13.976C0 19.7109 3.42171 24.6266 8.38557 26.7953C8.33737 25.8314 8.38557 24.6266 8.62655 23.5663C8.91573 22.4097 10.4097 15.9519 10.4097 15.9519C10.4097 15.9519 9.97594 15.0362 9.97594 13.735C9.97594 11.6627 11.1808 10.1205 12.6747 10.1205C13.9277 10.1205 14.5543 11.0843 14.5543 12.241C14.5543 13.494 13.735 15.4217 13.3012 17.2048C12.9639 18.6988 14.0241 19.9036 15.5181 19.9036C18.1687 19.9036 19.9519 16.4819 19.9519 12.4819C19.9519 9.39752 17.8796 7.13249 14.1205 7.13249C9.87952 7.13249 7.22895 10.3132 7.22895 13.8313C7.22895 15.0361 7.56629 15.9036 8.1446 16.5783C8.38557 16.8674 8.43378 17.012 8.33737 17.3493C8.28916 17.5903 8.09639 18.2168 8.04818 18.4578C7.95177 18.7951 7.66264 18.9397 7.32531 18.7951C5.34941 17.9758 4.48191 15.8553 4.48191 13.4457C4.48191 9.49388 7.80721 4.72278 14.4579 4.72278C19.8073 4.72278 23.3254 8.57823 23.3254 12.7228C23.3254 18.2168 20.2892 22.3132 15.8073 22.3132C14.3133 22.3132 12.8675 21.4939 12.3856 20.5783C12.3856 20.5783 11.5663 23.8072 11.4217 24.4337C11.1326 25.494 10.5542 26.6024 10.0241 27.4217C11.2772 27.8072 12.6266 28 13.976 28C21.6868 28 27.9519 21.7349 27.9519 14.024C27.9519 6.3132 21.6869 0 13.976 0Z" fill="#CB1F24"/>
</svg>
