<svg width="28" height="28" viewBox="0 0 28 28" fill="none" xmlns="http://www.w3.org/2000/svg">
    <path d="M14 28C21.732 28 28 21.732 28 14C28 6.26801 21.732 0 14 0C6.26801 0 0 6.26801 0 14C0 21.732 6.26801 28 14 28Z" fill="#55ACEE"/>
    <path d="M22.5756 10.061C21.9757 10.327 21.3303 10.5069 20.6535 10.5873C21.3445 10.1733 21.8748 9.51815 22.1251 8.73627C21.4785 9.11985 20.762 9.39811 20.0001 9.5481C19.3897 8.89799 18.5199 8.4917 17.5569 8.4917C15.7091 8.4917 14.2105 9.99033 14.2105 11.8381C14.2105 12.1004 14.2402 12.3557 14.2976 12.6008C11.5165 12.4613 9.05052 11.1291 7.39991 9.10388C7.11192 9.59801 6.9467 10.1733 6.9467 10.7864C6.9467 11.9472 7.53792 12.9719 8.43535 13.5718C7.88706 13.5546 7.37071 13.4041 6.91975 13.1528C6.9195 13.167 6.9195 13.1812 6.9195 13.1952C6.9195 14.8166 8.07348 16.169 9.60405 16.4762C9.32355 16.5531 9.02731 16.5938 8.7226 16.5938C8.50647 16.5938 8.29709 16.5731 8.09295 16.5341C8.5187 17.8633 9.75429 18.8309 11.219 18.8581C10.0735 19.7557 8.63076 20.2906 7.0625 20.2906C6.79297 20.2906 6.52594 20.2748 6.26465 20.2436C7.74481 21.1935 9.50423 21.7473 11.3939 21.7473C17.5491 21.7473 20.9153 16.6482 20.9153 12.2257C20.9153 12.0807 20.912 11.9362 20.9055 11.7929C21.5599 11.3212 22.1271 10.732 22.5756 10.061Z" fill="#F1F2F2"/>
</svg>
